<?xml version="1.0" encoding="UTF-8"?>
<svg version="1.1" viewBox="0 0 1600 1600" width="400" height="400" xmlns="http://www.w3.org/2000/svg">
<path transform="translate(0)" d="m0 0h1600v1600h-1600z" fill="#FEFEFE"/>
<path transform="translate(584,192)" d="m0 0 4 1 33 39 9 11 11 13 9 11 18 21-1 5-6 9-24 38-16 26-36 57-13 21-15 23-7 12-14 22-12 19-13 21-15 24-24 38-10 16-14 22-11 18-16 25-11 18-14 22-13 21-14 22-13 21-15 23-7 12-14 22-13 21-14 22-16 26-15 23-2 5h192l8-13 15-25 13-22 60-100 17-28 27-45 13-21 1-1h61l-5 9-28 46-9 15-16 26-9 15-34 56-12 20-13 21-13 22-14 23-1 2h85l10-15 11-17 9-1h172l2-5 17-28 13-22 10-16v-1l-106-1-40-1-9-5-4-5-3-7 1-10 5-12 13-22 16-27 8-14 11-17 11-12 10-7 13-6 15-4 6-1 40-1h164l-2 5-15 27-13 22-1 1-8 1h-175l-3 3-14 27-4 9 140 1 11 3 8 7 3 6-1 10-8 16-13 22-11 18-17 28-24 40-5 8-1 3 79-1 13-21 17-29 15-25 13-22 19-32 9-15 19-32 21-35 10-15 9-10 8-7 11-6 11-4 11-2 186-1-2 5-11 19-16 27-5 6h-158l-5 5-9 14-13 22-60 100-14 23-1 3h157l2 2-14 25-2 4v3h293l5 5 11 13 9 11 14 17 11 13 9 11 11 13 9 11 13 16 12 14 5 7v1h-1418l-15-2-10-4-9-6-7-7-7-14-1-5v-15l3-15 5-13 8-16 30-48 12-19 10-16 12-19 11-18 14-22 30-48 24-38 30-48 12-19 25-40 12-19 15-24 12-19 30-48 12-19 15-24 12-19 10-16 12-19 30-48 12-19 25-40 12-19 15-24 12-19 13-21 10-16 21-33z" fill="#1D73C1"/>
<path transform="translate(481,1294)" d="m0 0h187l-2 6-10 15-3 1h-182l-2-2 10-17z" fill="#1D73C1"/>
<path transform="translate(581,1129)" d="m0 0h186l-2 5-7 12-4 5h-186l6-12z" fill="#1D73C1"/>
<path transform="translate(1147,1130)" d="m0 0h186l-2 5-9 15-3 2h-161l-23-1 2-6 8-13z" fill="#1D73C1"/>
<path transform="translate(1048,1294)" d="m0 0h138l48 1-2 5-10 15-2 1h-184l1-5 9-15z" fill="#1D73C1"/>
<path transform="translate(1221,1103)" d="m0 0h106l7 6 2 4v11l-1 1-21 1h-127l-36-1 2-4 7-7 14-8 5-2z" fill="#1D73C1"/>
<path transform="translate(147,1321)" d="m0 0h53l137 1-3 6-7 11-3 3h-188l8-16z" fill="#1D73C1"/>
<path transform="translate(616,1103)" d="m0 0h146l5 4 3 6v11l-9 1h-171l-5-1 2-4h2l1-3 11-8 10-5z" fill="#1D73C1"/>
<path transform="translate(163,1295)" d="m0 0 188 1-1 4-8 14-1 1-56 1h-95l-38-1 2-6 7-13z" fill="#1D73C1"/>
<path transform="translate(467,1321)" d="m0 0h183l-6 7-18 10-11 4-25 1h-112l-8-4-4-5-1-2v-8z" fill="#1D73C1"/>
<path transform="translate(213,1213)" d="m0 0h103l79 1-1 3h-2v2l-11 8-12 6-5 1h-164l4-8z" fill="#1D73C1"/>
<path transform="translate(282,1103)" d="m0 0h142l15 1 6 4 5 6 1 9-1 1h-184l7-11 7-9z" fill="#1D73C1"/>
<path transform="translate(1211,1321)" d="m0 0h5l-3 5-10 7-15 7-12 3-65 1h-60l-9-1-8-5-3-7 1-9z" fill="#1D73C1"/>
<path transform="translate(262,1132)" d="m0 0h184l-1 5-8 13-2 2h-186l6-11 5-8z" fill="#1D73C1"/>
<path transform="translate(358,1187)" d="m0 0h51l7 1-5 9-7 10-2 1h-137l-44-1 4-5 13-9 10-5z" fill="#1D73C1"/>
<path transform="translate(908,1103)" d="m0 0h82l-2 4-10 16-1 1h-82l8-14 3-6z" fill="#1D73C1"/>
<path transform="translate(888,1133)" d="m0 0h84l-6 11-5 8-2 1-41 1h-42l2-5z" fill="#1D73C1"/>
<path transform="translate(890,1185)" d="m0 0h47l4 2-10 17-3 3h-48l-2-2z" fill="#1D73C1"/>
<path transform="translate(809,1322)" d="m0 0h47l4 1-2 5-7 11-5 5h-31l-18-1 6-11z" fill="#1D73C1"/>
<path transform="translate(700,1157)" d="m0 0h19l31 1-6 11-6 9-1 1h-50l2-6 9-14z" fill="#1D73C1"/>
<path transform="translate(1096,1213)" d="m0 0 51 1-6 11-7 10h-50l2-6 9-15z" fill="#1D73C1"/>
<path transform="translate(1130,1158)" d="m0 0 50 1-2 5-10 15-1 1h-49l-1-2 11-19z" fill="#1D73C1"/>
<path transform="translate(1265,1158)" d="m0 0h50l-1 5-10 16-15 1-36-1 2-5 8-14z" fill="#1D73C1"/>
<path transform="translate(1249,1185)" d="m0 0h51l-6 12-6 9h-51l2-5 8-14z" fill="#1D73C1"/>
<path transform="translate(633,1267)" d="m0 0h51l-2 5-8 14-2 2h-51l2-5 8-13z" fill="#1D73C1"/>
<path transform="translate(497,1267)" d="m0 0h51l-2 6-9 14-1 1h-50l1-5z" fill="#1D73C1"/>
<path transform="translate(1232,1213)" d="m0 0h51l-2 5-8 14-2 2h-50l1-5z" fill="#1D73C1"/>
<path transform="translate(874,1213)" d="m0 0h51l-2 6-10 15h-50l1-5 9-15z" fill="#1D73C1"/>
<path transform="translate(682,1185)" d="m0 0h52l-4 8-7 11-2 2h-49l-1-2z" fill="#1D73C1"/>
<path transform="translate(547,1184)" d="m0 0h51l-2 6-9 14-1 1h-50l1-5z" fill="#1D73C1"/>
<path transform="translate(826,1295)" d="m0 0h50l-1 5-9 14-2 2h-50l2-5 8-14z" fill="#1D73C1"/>
<path transform="translate(530,1213)" d="m0 0h48l2 1-2 6-7 11-2 3h-51l2-5 8-14z" fill="#1D73C1"/>
<path transform="translate(841,1269)" d="m0 0h51l-2 6-8 13-2 2h-47l-3-1 2-5z" fill="#1D73C1"/>
<path transform="translate(907,1158)" d="m0 0h50l-2 5-8 14-2 2h-50l1-5 9-14z" fill="#1D73C1"/>
<path transform="translate(563,1158)" d="m0 0h45l6 1-4 7-8 13h-51l2-5 8-14z" fill="#1D73C1"/>
<path transform="translate(650,1239)" d="m0 0h46l5 1-6 11-6 9h-49v-4l6-11z" fill="#1D73C1"/>
<path transform="translate(1114,1184)" d="m0 0 50 1-6 12-6 8-1 1h-35l-15-1 6-11 6-9z" fill="#1D73C1"/>
<path transform="translate(195,1241)" d="m0 0h31l20 1-2 5-9 14-1 1h-50l1-4 7-13z" fill="#1D73C1"/>
<path transform="translate(1080,1240)" d="m0 0h51l-2 5-9 14-2 2h-24l-25-1 1-4 9-15z" fill="#1D73C1"/>
<path transform="translate(859,1239)" d="m0 0 50 1-6 12-5 8-6 1-45-1 2-6 8-13z" fill="#1D73C1"/>
<path transform="translate(514,1239)" d="m0 0 51 1-6 11-6 9h-50v-3z" fill="#1D73C1"/>
<path transform="translate(1064,1267)" d="m0 0 50 1-2 5-9 15h-51l2-6 9-14z" fill="#1D73C1"/>
<path transform="translate(666,1212)" d="m0 0 51 1-2 6-6 9-4 5h-48l-2-1 2-5z" fill="#1D73C1"/>
<path transform="translate(1218,1239)" d="m0 0 49 1-2 5-8 13-2 2h-50l1-4 9-15z" fill="#1D73C1"/>
<path transform="translate(1199,1268)" d="m0 0h51l-2 5-8 13-2 2h-50l1-4 6-10z" fill="#1D73C1"/>
<path transform="translate(384,1159)" d="m0 0h20l28 1-6 11-5 8-2 1h-35l-11-1 1-4 8-15z" fill="#1D73C1"/>
<path transform="translate(179,1269)" d="m0 0h50l-1 5-8 11-1 2-3 1h-16l-32-1 3-7 7-10z" fill="#1D73C1"/>
</svg>
