<?xml version="1.0" encoding="UTF-8" standalone="no"?>
<!-- Generator: Adobe Illustrator 26.3.1, SVG Export Plug-In . SVG Version: 6.00 Build 0)  -->

<svg
		version="1.1"
		id="Layer_1"
		x="0px"
		y="0px"
		viewBox="0 0 827.75012 1162.9893"
		xml:space="preserve"
		width="827.75012"
		height="1162.9893"
		xmlns="http://www.w3.org/2000/svg"
><defs
   id="defs14" />
    <style
            type="text/css"
            id="style1">
	.st0{opacity:0.24;fill:#F2F2F2;}
	.st1{fill:#1A1A1A;}
	.st2{fill:url(#SVGID_1_);}
	.st3{fill:url(#SVGID_00000025408617578184594250000004894952309310115754_);}
	.st4{fill:url(#SVGID_00000170975579382712246050000001670266808681547167_);}
	.st5{fill:url(#SVGID_00000085218203908169196850000008489575979023406486_);}
	.st6{fill:url(#SVGID_00000047018626685412647850000003517499362883480464_);}
	.st7{fill:url(#SVGID_00000115498433156194039380000011308517964112031917_);}
	.st8{fill:url(#SVGID_00000133521701270915201000000005001151959905845676_);}
	.st9{fill:url(#SVGID_00000176006382308635264650000003724454953384322945_);}
	.st10{fill:url(#SVGID_00000002370284066290197010000008238315187706042502_);}
	.st11{fill:url(#SVGID_00000070800446341623104530000005181654592235204999_);}
	.st12{fill:url(#SVGID_00000016765035934880920190000009119864369198866621_);}
	.st13{fill:url(#SVGID_00000145018881334475600550000005775734153717653378_);}
	.st14{fill:url(#SVGID_00000031205328261172861030000008705743623276778642_);}
	.st15{fill:url(#SVGID_00000117656263583852446570000001797001957239612049_);}
	.st16{fill:url(#SVGID_00000060024075979733245940000009491922872143261619_);}
	.st17{fill:url(#SVGID_00000036956559841638111230000013200392814832761010_);}
	.st18{fill:url(#SVGID_00000075841341642215390270000005102531585037103805_);}
	.st19{fill:url(#SVGID_00000007426697023547518480000002314299948592218768_);}
	.st20{fill:url(#SVGID_00000139253318646829992680000013516500576444752299_);}
	.st21{fill:url(#SVGID_00000051346934363613998820000008089832794297507754_);}
	.st22{fill:url(#SVGID_00000126307111681181612140000008101540053428657334_);}
	.st23{fill:url(#SVGID_00000012460939573789371630000011658216375337131951_);}
	.st24{fill:url(#SVGID_00000152222743605805859710000001212313248002318522_);}
	.st25{fill:url(#SVGID_00000182496928309145401380000015680650973473221272_);}
	.st26{fill:url(#SVGID_00000142148711765612044700000003112021464327331741_);}
	.st27{fill:url(#SVGID_00000155106038774536676830000017115526075948419507_);}
	.st28{fill:url(#SVGID_00000165192982950074107630000017455121872718941316_);}
	.st29{fill:#333333;}
	.st30{fill:url(#SVGID_00000137133390855655474630000014073915580036977547_);}
	.st31{fill:url(#SVGID_00000095309892940192256490000008034664428156530319_);}
	.st32{fill:url(#SVGID_00000150814359314357213060000010338217689682115254_);}
	.st33{opacity:0.24;fill:url(#SVGID_00000118376033633798057760000015364822783460429994_);}
	.st34{opacity:0.24;fill:url(#SVGID_00000021087193499972780720000014336469878997240211_);}
	.st35{opacity:0.24;fill:url(#SVGID_00000088825281395790518190000012181222494700897982_);}
	.st36{fill:url(#SVGID_00000069359713355668660260000005898300784856417165_);}
	.st37{fill:url(#SVGID_00000082341674710275045780000014986942569296281523_);}
	.st38{fill:url(#SVGID_00000034076237325128094040000011662991015135654045_);}
	.st39{fill:url(#SVGID_00000123414748666296983670000002848950694871383446_);}
	.st40{fill:url(#SVGID_00000088115496034051197160000017643083802020844691_);}
	.st41{fill:url(#SVGID_00000132781114090289856190000000156838431290274442_);}
	.st42{fill:url(#SVGID_00000056391051535698276540000000631015470214500497_);}
	.st43{fill:url(#SVGID_00000090272119347571312440000009902574732140634014_);}
	.st44{fill:url(#SVGID_00000133491071403257639710000006192440146696825522_);}
	.st45{fill:url(#SVGID_00000095312210683916710130000011927121750571855771_);}
	.st46{fill:url(#SVGID_00000013914350212583028950000018079586946642471066_);}
	.st47{fill:url(#SVGID_00000120554356354226773030000015251773096813652636_);}
	.st48{fill:url(#SVGID_00000083795585045276131760000000200649159746582916_);}
	.st49{fill:url(#SVGID_00000088111146182469217030000014132970956015554202_);}
	.st50{fill:url(#SVGID_00000057125576072210770200000003730509878413131687_);}
	.st51{fill:url(#SVGID_00000018930945526196918370000011976209774238191779_);}
	.st52{fill:url(#SVGID_00000177486327416251697590000012663628547713451187_);}
	.st53{fill:url(#SVGID_00000178189012375716091150000007723833654715347339_);}
	.st54{fill:url(#SVGID_00000062879205361124085390000015581685004613638327_);}
	.st55{fill:url(#SVGID_00000044135807423461375590000017187360370276929701_);}
	.st56{fill:url(#SVGID_00000127759782612909472400000013708130512115382921_);}
	.st57{fill:url(#SVGID_00000065792057943854409360000007106214303023893677_);}
	.st58{fill:#B3B3B3;}
	.st59{fill:url(#SVGID_00000158709959122649991050000016696433203535664296_);}
	.st60{fill:url(#SVGID_00000065076713691695079290000010299979036250592159_);}
	.st61{fill:url(#SVGID_00000039124687829176473680000001777236476646546106_);}
	.st62{fill:url(#SVGID_00000111180277930563096650000001847009704152702342_);}
	.st63{fill:url(#SVGID_00000011749008586644105280000000507482457314241180_);}
	.st64{fill:url(#SVGID_00000000939644238008787220000000729418682760112800_);}
	.st65{fill:url(#SVGID_00000166635934035235440600000001565332917733638578_);}
	.st66{fill:url(#SVGID_00000115476814125906842640000006795763249360003459_);}
</style>

    <g
            id="g14"
            transform="translate(-586.10985,-418.525)">
	<linearGradient
            id="SVGID_1_"
            gradientUnits="userSpaceOnUse"
            x1="597.89282"
            y1="710.68683"
            x2="1275.9039"
            y2="710.68683">
		<stop
                offset="0"
                style="stop-color:#28E3FF"
                id="stop1"/>
        <stop
                offset="1"
                style="stop-color:#C2EE21"
                id="stop2"/>
	</linearGradient>
        <path
                class="st2"
                d="M 1275.9,1002.8 C 1210.8,891.1 1096.7,797.5 956.2,797.5 c -48.6,0 -92.8,7.6 -132.4,19.4 -141.6,42.5 -222.8,140 -225.8,141.9 -0.3,0.2 0.2,-0.6 1.6,-2.7 l 51.3,-75.3 c 0.1,-0.1 0.1,-0.1 0.1,-0.2 l 27.4,-40.3 c 0,0 0.3,-0.5 1,-1.4 L 814.6,640.2 957.4,430.3 c 10.7,-15.7 33.8,-15.7 44.5,0 l 61.2,89.9 6.2,9 112,164.6 60.9,89.5 6.6,9.7 c -72.1,-43.5 -156.6,-68.4 -247,-68.4 h -0.5 c -6.1,0 -7.1,8.6 -1.2,10.2 121.7,32.5 256.3,145.8 275.8,268 z"
                id="path2"
                style="fill:url(#SVGID_1_)"/>

        <linearGradient
                id="SVGID_00000015347224122323016130000016443915659848606655_"
                gradientUnits="userSpaceOnUse"
                x1="597.89948"
                y1="1190.9288"
                x2="1266.8544"
                y2="1190.9288">
		<stop
                offset="0"
                style="stop-color:#2057FE"
                id="stop3"/>
            <stop
                    offset="1"
                    style="stop-color:#4FD5FC"
                    id="stop4"/>
	</linearGradient>
        <path
                style="fill:url(#SVGID_00000015347224122323016130000016443915659848606655_)"
                d="m 1266.9,1187.4 c -0.8,-4 -1.8,-8 -2.8,-12 -1,-3.9 -2.1,-7.8 -3.3,-11.7 -0.7,-2.2 -1.4,-4.3 -2.1,-6.5 -0.2,-0.7 -0.4,-1.3 -0.7,-1.9 -0.7,-1.9 -1.3,-3.8 -2,-5.8 -0.8,-2.3 -1.7,-4.6 -2.6,-6.9 0,0 0,-0.1 0,-0.1 -0.9,-2.3 -1.9,-4.6 -2.8,-6.8 v -0.1 c -0.6,-1.4 -1.2,-2.8 -1.9,-4.2 -2.3,-5.1 -4.7,-10.1 -7.3,-15 -0.6,-1.1 -1.1,-2.1 -1.7,-3.2 -3.3,-6.1 -6.9,-12.1 -10.6,-17.9 -0.7,-1 -1.3,-2 -2,-3 -0.7,-1.1 -1.4,-2.1 -2.2,-3.2 -0.8,-1.1 -1.6,-2.3 -2.4,-3.4 -4,-5.7 -8.2,-11.2 -12.6,-16.5 -1.9,-2.2 -3.7,-4.4 -5.6,-6.6 -1.9,-2.2 -3.9,-4.3 -5.9,-6.4 -1,-1.1 -2,-2.2 -3.1,-3.2 -0.8,-0.9 -1.7,-1.8 -2.6,-2.6 -1.3,-1.3 -2.6,-2.5 -3.9,-3.8 -1.1,-1 -2.1,-2 -3.2,-3 -1.1,-1 -2.2,-2 -3.3,-3.1 -2.2,-2 -4.4,-3.9 -6.7,-5.8 -0.1,0 -0.1,-0.1 -0.2,-0.1 -0.9,-0.8 -1.7,-1.5 -2.6,-2.2 -3.7,-3.1 -7.5,-6.1 -11.4,-8.9 -17.2,-12.7 -36,-23.5 -55.9,-32 -2.6,-1.1 -5.2,-2.2 -7.8,-3.2 -13,-5.1 -26.6,-9.2 -40.5,-12.3 -1.2,-0.3 -2.4,-0.5 -3.5,-0.8 -24.7,-5.1 -50.6,-6.9 -76.9,-4.8 -2.4,0.2 -4.8,0.4 -7.3,0.7 -6.9,0.7 -13.7,1.7 -20.4,2.9 -1.3,0.2 -2.7,0.5 -4,0.8 -2.7,0.5 -5.3,1.1 -7.9,1.7 0,0 0,0 0,0 -2,0.5 -4,0.9 -6,1.4 -2,0.5 -3.9,1 -5.9,1.5 -0.5,0.2 -1,0.3 -1.4,0.4 -1.9,0.5 -3.9,1.1 -5.8,1.7 -1.9,0.6 -3.8,1.2 -5.7,1.8 -4.1,1.3 -8.1,2.7 -12,4.2 -3.9,1.5 -7.8,3.1 -11.7,4.8 -1.9,0.8 -3.9,1.7 -5.8,2.6 -2.3,1.1 -4.6,2.1 -6.8,3.3 -1.5,0.7 -3,1.5 -4.5,2.3 -8.2,4.2 -16.1,8.9 -23.7,13.9 -2.1,1.4 -4.1,2.7 -6.1,4.2 -5.8,4 -11.5,8.2 -16.9,12.7 -2.5,2 -4.9,4 -7.2,6.1 -2.3,2 -4.5,4 -6.7,6.1 -1.5,1.4 -3,2.8 -4.5,4.3 -25.2,24.7 -45.6,54 -59.9,86.5 -1.6,3.5 -3,7.1 -4.4,10.7 -12,30.9 -18.6,64.5 -18.6,99.2 0,2.4 0,4.7 0.1,7.1 0,0.1 0,0.1 0,0.2 0,2.3 0.2,4.7 0.3,7 v 0.3 c 0.3,4.8 0.6,9.6 1.1,14.4 0.3,2.8 0.6,5.6 1,8.4 0.4,2.8 0.8,5.6 1.3,8.3 1.1,6.5 2.4,12.9 3.9,19.2 0.3,1.3 0.6,2.5 0.9,3.8 0.7,2.6 1.3,5.2 2.1,7.7 0.7,2.4 1.4,4.8 2.2,7.2 0.4,1.2 0.8,2.5 1.2,3.7 0.4,1.2 0.8,2.4 1.2,3.6 0.9,2.7 1.9,5.3 2.9,7.9 0.8,2.1 1.7,4.3 2.5,6.4 1,2.3 1.9,4.7 3,7 0.4,1 0.9,2 1.4,3 0.7,1.6 1.5,3.3 2.3,4.9 1,2 1.9,3.9 2.9,5.9 1.1,2.2 2.3,4.4 3.5,6.6 0,0 0,0 0,0.1 1.1,2 2.1,3.9 3.3,5.8 0.3,0.6 0.7,1.2 1,1.7 1,1.7 1.9,3.3 3,4.9 0.1,0.3 0.3,0.5 0.4,0.7 1,1.6 2,3.2 3.1,4.8 1.6,2.5 3.3,5 5.1,7.5 1,1.4 2,2.8 3,4.2 1.4,1.9 2.7,3.7 4.1,5.5 1.4,1.8 2.7,3.5 4.2,5.3 0,0 0.1,0.1 0.1,0.1 1.7,2.1 3.4,4.1 5.1,6.1 0.8,0.9 1.5,1.7 2.2,2.6 10,11.4 20.9,21.9 32.6,31.4 1,0.8 1.9,1.5 2.9,2.3 4.6,3.7 9.3,7.2 14.2,10.5 0.9,0.6 1.8,1.2 2.7,1.9 9,6.1 18.4,11.7 28.1,16.7 1.2,0.6 2.4,1.2 3.6,1.8 3.6,1.8 7.2,3.5 10.9,5.1 1.2,0.6 2.4,1.1 3.7,1.6 2.5,1.1 5,2.1 7.4,3 1.2,0.5 2.5,1 3.7,1.4 3.8,1.4 7.6,2.8 11.5,4 1.3,0.4 2.5,0.8 3.8,1.2 0.2,0.1 0.3,0.1 0.5,0.2 2.4,0.8 4.8,1.5 7.3,2.1 2.8,0.8 5.6,1.5 8.4,2.2 1.1,0.3 2.2,0.6 3.4,0.8 2.6,0.6 5.3,1.2 8,1.7 1.3,0.3 2.5,0.5 3.8,0.8 1.4,0.3 2.8,0.5 4.2,0.7 1.3,0.2 2.7,0.5 4,0.7 4,0.6 8.1,1.2 12.2,1.6 1.1,0.1 2.1,0.2 3.1,0.3 1.7,0.2 3.4,0.3 5.1,0.4 1.3,0.1 2.5,0.2 3.8,0.3 5.8,0.4 11.7,0.6 17.6,0.5 -10.1,2.1 -20.5,3.6 -30.9,4.7 -11.9,1.2 -23.7,1.9 -35.3,1.9 -2.6,0 -5.3,0 -7.9,-0.1 -2.5,-0.1 -5,-0.2 -7.5,-0.3 -0.3,0 -0.6,0 -0.9,-0.1 -2,-0.1 -3.9,-0.2 -5.9,-0.4 -1,-0.1 -1.9,-0.1 -2.9,-0.2 -1.9,-0.1 -3.8,-0.3 -5.7,-0.5 -2.4,-0.2 -4.8,-0.5 -7.1,-0.7 -1,-0.1 -2.1,-0.3 -3.1,-0.4 -2.1,-0.3 -4.1,-0.5 -6.2,-0.8 -1.9,-0.3 -3.8,-0.6 -5.7,-0.9 -0.9,-0.2 -1.8,-0.3 -2.7,-0.5 -0.2,0 -0.4,-0.1 -0.6,-0.1 -1.8,-0.3 -3.5,-0.6 -5.2,-0.9 -2.6,-0.5 -5.1,-1 -7.7,-1.5 -1.4,-0.3 -2.7,-0.6 -4,-0.9 -0.1,-0.1 -0.3,-0.1 -0.4,-0.1 -0.1,0 -0.1,0 -0.2,-0.1 -1.8,-0.4 -3.6,-0.8 -5.4,-1.3 -0.7,-0.2 -1.4,-0.4 -2.1,-0.5 -1.4,-0.4 -2.8,-0.7 -4.2,-1.1 -2.2,-0.6 -4.3,-1.2 -6.5,-1.8 -2.3,-0.7 -4.6,-1.3 -6.8,-2 -0.5,-0.1 -1,-0.3 -1.4,-0.5 -2.1,-0.7 -4.2,-1.3 -6.3,-2.1 -2.4,-0.8 -4.8,-1.6 -7.2,-2.5 -2.2,-0.8 -4.4,-1.6 -6.6,-2.5 v 0 c -2.1,-0.8 -4.2,-1.7 -6.3,-2.5 -0.7,-0.3 -1.4,-0.6 -2.1,-0.9 -2,-0.8 -4,-1.7 -6,-2.6 -2,-0.9 -4.1,-1.8 -6.1,-2.8 -0.5,-0.2 -1,-0.5 -1.5,-0.7 -2,-1 -4.1,-2 -6.1,-3 -2.2,-1.1 -4.5,-2.3 -6.7,-3.4 -2.2,-1.2 -4.4,-2.4 -6.6,-3.6 -3.8,-2.1 -7.6,-4.3 -11.4,-6.6 -1,-0.6 -2,-1.2 -3,-1.9 -3.5,-2.2 -7.1,-4.5 -10.5,-6.8 -1.1,-0.7 -2.2,-1.5 -3.2,-2.2 -0.8,-0.5 -1.6,-1.1 -2.3,-1.6 -1,-0.7 -1.9,-1.3 -2.8,-2 -0.7,-0.5 -1.3,-0.9 -2,-1.4 -1.2,-0.9 -2.3,-1.7 -3.5,-2.6 -1.5,-1.1 -3,-2.3 -4.5,-3.4 -1.2,-0.9 -2.4,-1.9 -3.6,-2.8 -0.5,-0.4 -0.9,-0.7 -1.4,-1.1 -1.2,-1 -2.5,-2 -3.7,-3 -0.1,-0.1 -0.3,-0.2 -0.4,-0.3 -1.3,-1.1 -2.7,-2.2 -4,-3.4 -1.5,-1.3 -2.9,-2.6 -4.4,-3.8 -1.4,-1.3 -2.8,-2.5 -4.2,-3.8 -1.1,-1.1 -2.3,-2.1 -3.4,-3.2 -0.6,-0.6 -1.2,-1.1 -1.7,-1.7 -1,-1 -2,-1.9 -3,-2.9 -2.7,-2.7 -5.4,-5.5 -8,-8.2 -1.3,-1.4 -2.6,-2.8 -3.9,-4.1 -1.3,-1.4 -2.5,-2.8 -3.8,-4.2 -2.5,-2.8 -5,-5.7 -7.4,-8.6 -1.2,-1.5 -2.4,-2.9 -3.6,-4.4 -1.2,-1.4 -2.3,-2.9 -3.4,-4.3 0,-0.1 -0.1,-0.1 -0.1,-0.1 -0.1,-0.1 -0.2,-0.2 -0.3,-0.4 -3.2,-4.1 -6.3,-8.3 -9.3,-12.6 -3.1,-4.4 -6.1,-8.9 -8.9,-13.4 -0.9,-1.5 -1.9,-3.1 -2.8,-4.6 -0.9,-1.6 -1.8,-3.1 -2.7,-4.7 -0.9,-1.6 -1.8,-3.1 -2.7,-4.7 -0.8,-1.4 -1.5,-2.8 -2.3,-4.1 -0.4,-0.7 -0.8,-1.4 -1.1,-2.1 -0.6,-1.1 -1.2,-2.2 -1.7,-3.3 -0.8,-1.6 -1.6,-3.2 -2.4,-4.8 -0.7,-1.3 -1.3,-2.7 -2,-4 -1.1,-2.2 -2.1,-4.4 -3.1,-6.6 -1.4,-3 -2.7,-6.1 -4,-9.2 -0.7,-1.7 -1.4,-3.3 -2,-5 l -0.5,-1.4 c -0.7,-1.6 -1.3,-3.2 -1.9,-4.8 -1.4,-3.8 -2.8,-7.6 -4.1,-11.5 -0.4,-1.3 -0.9,-2.6 -1.3,-4 -0.4,-1.3 -0.8,-2.5 -1.2,-3.8 -0.4,-1.2 -0.7,-2.3 -1.1,-3.5 -1.9,-6.2 -3.5,-12.5 -5,-19 -0.4,-1.4 -0.7,-2.8 -1,-4.2 -0.2,-0.6 -0.3,-1.2 -0.4,-1.8 -0.4,-1.6 -0.7,-3.2 -1,-4.8 -0.6,-2.8 -1.1,-5.6 -1.6,-8.5 -0.3,-1.8 -0.6,-3.6 -0.9,-5.5 -0.1,-0.7 -0.2,-1.3 -0.3,-2 -0.3,-1.7 -0.5,-3.4 -0.7,-5.1 -0.1,-0.8 -0.2,-1.6 -0.3,-2.4 -0.3,-2.4 -0.6,-4.9 -0.9,-7.3 -6.9,-66.3 6,-130 33.9,-185.4 49.5,-98.1 146.4,-169.7 263.8,-182.1 79.7,-8.3 155.8,12 217.9,52.7 2.1,1.4 4.2,2.8 6.4,4.3 0.5,0.4 1,0.7 1.5,1.1 1.2,0.8 2.4,1.7 3.6,2.6 2.5,1.8 5.1,3.6 7.5,5.6 1.1,0.8 2.2,1.7 3.3,2.5 0.9,0.7 1.8,1.4 2.7,2.1 2.5,2 5,4 7.4,6 0.1,0.1 0.3,0.2 0.4,0.4 1,0.8 2,1.7 3,2.6 0.9,0.8 1.8,1.6 2.7,2.4 1,0.9 1.9,1.7 2.8,2.5 1.5,1.4 3,2.7 4.4,4.1 1,0.9 1.9,1.8 2.8,2.7 1.6,1.6 3.2,3.1 4.9,4.8 1.6,1.6 3.2,3.2 4.8,4.8 0.5,0.6 1.1,1.1 1.6,1.7 1.2,1.2 2.3,2.4 3.4,3.6 1,1.1 2,2.2 3,3.3 1.3,1.5 2.6,2.9 3.9,4.4 0.7,0.8 1.3,1.5 1.9,2.2 1,1.1 1.9,2.2 2.8,3.4 1,1.1 1.9,2.2 2.8,3.4 2.5,3 4.9,6.1 7.2,9.3 1.2,1.6 2.3,3.1 3.5,4.7 2.3,3.2 4.5,6.4 6.7,9.7 1.1,1.6 2.1,3.1 3.1,4.7 0.2,0.3 0.4,0.6 0.6,0.9 2,3.1 3.9,6.2 5.8,9.4 1,1.7 2,3.4 3,5.1 0.1,0.1 0.1,0.2 0.2,0.3 0.9,1.6 1.8,3.3 2.7,4.9 1,1.8 2,3.6 2.9,5.5 0.6,1.2 1.2,2.3 1.8,3.5 1.2,2.4 2.4,4.8 3.6,7.3 0.8,1.7 1.6,3.3 2.3,5 v 0 c 0.7,1.6 1.5,3.2 2.2,4.9 1.8,4.1 3.5,8.2 5.2,12.4 0.5,1.3 1,2.5 1.5,3.8 1.9,5 3.7,10.1 5.3,15.2 0.5,1.6 1,3.1 1.5,4.7 0.6,1.8 1.1,3.5 1.6,5.3 0.4,1.4 0.8,2.9 1.2,4.3 0.4,1.4 0.8,2.8 1.1,4.2 0.8,2.8 1.5,5.7 2.1,8.6 0.4,1.8 0.9,3.7 1.2,5.5 0.4,1.8 0.8,3.5 1.1,5.3 0.4,2 0.8,3.9 1.1,5.9 0.4,1.9 0.7,3.8 1,5.7 0.3,1.6 0.5,3.1 0.7,4.7 0.1,0.7 0.2,1.4 0.3,2.1 0.1,0.4 0.1,0.8 0.2,1.2 0.3,1.6 0.5,3.3 0.7,4.9 0.2,1.8 0.4,3.6 0.6,5.4 0,0.3 0.1,0.5 0.1,0.8 0.9,9.6 1.5,20 1.6,30.4 z"
                id="path4"/>

        <linearGradient
                id="SVGID_00000016785186966231536470000012672505184641774753_"
                gradientUnits="userSpaceOnUse"
                x1="597.89948"
                y1="1190.9288"
                x2="1266.8544"
                y2="1190.9288">
		<stop
                offset="0"
                style="stop-color:#0762EF"
                id="stop5"/>
            <stop
                    offset="1"
                    style="stop-color:#52E3FE"
                    id="stop6"/>
	</linearGradient>
        <path
                style="fill:url(#SVGID_00000016785186966231536470000012672505184641774753_)"
                d="m 1266.9,1187.4 c -0.8,-4 -1.8,-8 -2.8,-12 -1,-3.9 -2.1,-7.8 -3.3,-11.7 -0.7,-2.2 -1.4,-4.3 -2.1,-6.5 -0.2,-0.7 -0.4,-1.3 -0.7,-1.9 -0.7,-1.9 -1.3,-3.8 -2,-5.8 -0.8,-2.3 -1.7,-4.6 -2.6,-6.9 0,0 0,-0.1 0,-0.1 -0.9,-2.3 -1.9,-4.6 -2.8,-6.8 v -0.1 c -0.6,-1.4 -1.2,-2.8 -1.9,-4.2 -2.3,-5.1 -4.7,-10.1 -7.3,-15 -0.6,-1.1 -1.1,-2.1 -1.7,-3.2 -3.3,-6.1 -6.9,-12.1 -10.6,-17.9 -0.7,-1 -1.3,-2 -2,-3 -0.7,-1.1 -1.4,-2.1 -2.2,-3.2 -0.8,-1.1 -1.6,-2.3 -2.4,-3.4 -4,-5.7 -8.2,-11.2 -12.6,-16.5 -1.9,-2.2 -3.7,-4.4 -5.6,-6.6 -1.9,-2.2 -3.9,-4.3 -5.9,-6.4 -1,-1.1 -2.1,-2.2 -3.1,-3.2 -0.9,-0.9 -1.7,-1.8 -2.6,-2.6 -1.3,-1.3 -2.6,-2.5 -3.9,-3.8 -1.1,-1 -2.1,-2 -3.2,-3 -1.1,-1 -2.2,-2 -3.3,-3.1 -2.2,-2 -4.4,-3.9 -6.7,-5.8 -0.1,0 -0.1,-0.1 -0.2,-0.1 -0.9,-0.8 -1.7,-1.5 -2.6,-2.2 -3.7,-3.1 -7.5,-6.1 -11.4,-8.9 -17.2,-12.7 -36,-23.5 -55.9,-32 -2.6,-1.1 -5.2,-2.2 -7.8,-3.2 -13,-5.1 -26.6,-9.2 -40.5,-12.3 -1.2,-0.3 -2.4,-0.5 -3.5,-0.8 -24.7,-5.1 -50.6,-6.9 -76.9,-4.8 -2.4,0.2 -4.9,0.4 -7.3,0.7 -6.9,0.7 -13.7,1.7 -20.4,2.9 -1.3,0.2 -2.7,0.5 -4,0.8 -2.7,0.5 -5.3,1.1 -7.9,1.7 0,0 0,0 0,0 -2,0.5 -4,0.9 -6,1.4 -2,0.5 -3.9,1 -5.9,1.5 -0.5,0.1 -1,0.3 -1.4,0.4 -1.9,0.5 -3.9,1.1 -5.8,1.7 -1.9,0.6 -3.8,1.2 -5.7,1.8 -4.1,1.3 -8.1,2.7 -12,4.2 -3.9,1.5 -7.8,3.1 -11.7,4.8 -1.9,0.8 -3.9,1.7 -5.8,2.6 -2.3,1.1 -4.6,2.1 -6.8,3.3 -1.5,0.7 -3,1.5 -4.5,2.3 -8.2,4.2 -16.1,8.9 -23.7,13.9 -2.1,1.4 -4.1,2.7 -6.1,4.2 -5.8,4 -11.5,8.2 -16.9,12.7 -2.5,2 -4.9,4 -7.2,6.1 -2.3,2 -4.5,4 -6.7,6.1 -1.5,1.4 -3,2.8 -4.5,4.3 -25.2,24.7 -45.6,54 -59.9,86.5 -1.6,3.5 -3,7.1 -4.4,10.7 -12,30.9 -18.6,64.5 -18.6,99.2 0,2.4 0,4.7 0.1,7.1 0,0.1 0,0.1 0,0.2 0,2.3 0.2,4.7 0.3,7 v 0.3 c 0.3,4.8 0.6,9.6 1.1,14.4 0.3,2.8 0.6,5.6 1,8.4 0.4,2.8 0.8,5.6 1.2,8.3 1.1,6.5 2.4,12.9 3.9,19.2 0.3,1.3 0.6,2.5 0.9,3.8 0.7,2.6 1.3,5.2 2.1,7.7 0.7,2.4 1.4,4.8 2.2,7.2 0.4,1.2 0.8,2.5 1.2,3.7 0.4,1.2 0.8,2.4 1.2,3.6 0.9,2.7 1.9,5.3 2.9,7.9 0.8,2.1 1.7,4.3 2.5,6.4 1,2.3 1.9,4.7 3,7 0.2,0.5 0.4,1 0.6,1.4 0.2,0.5 0.5,1 0.7,1.5 0.7,1.6 1.5,3.3 2.3,4.9 1,2 1.9,3.9 2.9,5.9 1.1,2.2 2.3,4.4 3.5,6.6 0,0 0,0 0,0.1 1,2 2.1,3.9 3.3,5.8 0.3,0.6 0.7,1.2 1,1.7 1,1.7 1.9,3.3 3,4.9 0.1,0.3 0.3,0.5 0.4,0.7 1,1.6 2,3.2 3.1,4.8 1.6,2.5 3.3,5 5.1,7.5 1,1.4 2,2.8 3,4.2 1.4,1.9 2.7,3.7 4.1,5.5 1.4,1.8 2.7,3.5 4.2,5.3 0,0 0.1,0.1 0.1,0.1 1.7,2.1 3.4,4.1 5.1,6.1 0.8,0.9 1.5,1.7 2.2,2.6 10,11.4 20.9,21.9 32.6,31.4 1,0.8 1.9,1.5 2.9,2.3 4.6,3.7 9.3,7.2 14.2,10.5 0.9,0.6 1.8,1.2 2.7,1.9 9,6.1 18.4,11.7 28.1,16.7 1.2,0.6 2.4,1.2 3.6,1.8 3.6,1.8 7.2,3.5 10.9,5.1 1.2,0.6 2.4,1.1 3.7,1.6 2.5,1.1 5,2.1 7.4,3 1.2,0.5 2.5,1 3.7,1.4 3.8,1.4 7.6,2.8 11.5,4 1.3,0.4 2.5,0.8 3.8,1.2 0.2,0.1 0.3,0.1 0.5,0.2 2.4,0.8 4.8,1.5 7.3,2.1 2.8,0.8 5.6,1.5 8.4,2.2 1.1,0.3 2.2,0.6 3.4,0.8 2.6,0.6 5.3,1.2 8,1.7 1.3,0.3 2.5,0.5 3.8,0.8 1.4,0.3 2.8,0.5 4.2,0.7 1.4,0.3 2.7,0.5 4,0.7 4,0.6 8.1,1.2 12.2,1.6 1.1,0.1 2.1,0.2 3.1,0.3 1.7,0.2 3.4,0.3 5.1,0.4 1.3,0.1 2.5,0.2 3.8,0.3 5.8,0.4 11.7,0.6 17.6,0.5 -10.1,2.1 -20.5,3.6 -30.9,4.7 -11.9,1.2 -23.7,1.9 -35.3,1.9 -2.6,0 -5.3,0 -7.9,-0.1 -2.5,-0.1 -5,-0.2 -7.5,-0.3 -0.3,0 -0.6,0 -0.9,-0.1 -2,-0.1 -3.9,-0.2 -5.9,-0.4 -1,-0.1 -1.9,-0.1 -2.9,-0.2 -1.9,-0.1 -3.8,-0.3 -5.7,-0.5 -2.4,-0.2 -4.8,-0.5 -7.1,-0.7 -1,-0.1 -2.1,-0.3 -3.1,-0.4 -2.1,-0.3 -4.1,-0.5 -6.2,-0.8 -1.9,-0.3 -3.8,-0.6 -5.7,-0.9 -0.9,-0.2 -1.8,-0.3 -2.7,-0.5 -0.2,0 -0.4,-0.1 -0.6,-0.1 -1.8,-0.3 -3.5,-0.6 -5.2,-0.9 -2.6,-0.5 -5.1,-1 -7.7,-1.5 -1.4,-0.3 -2.7,-0.6 -4,-0.9 -0.1,-0.1 -0.3,-0.1 -0.4,-0.1 -0.1,0 -0.1,0 -0.2,-0.1 -1.8,-0.4 -3.6,-0.8 -5.4,-1.3 -0.7,-0.2 -1.4,-0.4 -2.1,-0.5 -1.4,-0.4 -2.8,-0.7 -4.2,-1.1 -2.2,-0.6 -4.3,-1.2 -6.5,-1.8 -2.3,-0.7 -4.6,-1.3 -6.8,-2 -0.5,-0.1 -1,-0.3 -1.4,-0.5 -2.1,-0.7 -4.2,-1.3 -6.3,-2.1 -2.4,-0.8 -4.8,-1.6 -7.2,-2.5 -2.2,-0.8 -4.4,-1.6 -6.6,-2.5 v 0 c -0.4,-0.1 -0.7,-0.3 -1,-0.4 -1.8,-0.7 -3.5,-1.4 -5.3,-2.1 -0.7,-0.3 -1.4,-0.6 -2.1,-0.9 -2,-0.8 -4,-1.7 -6,-2.6 -2,-0.9 -4.1,-1.8 -6.1,-2.8 -0.5,-0.2 -1,-0.5 -1.5,-0.7 -2,-1 -4.1,-2 -6.1,-3 -2.2,-1.1 -4.5,-2.3 -6.7,-3.4 -2.2,-1.2 -4.4,-2.4 -6.6,-3.6 -3.8,-2.1 -7.6,-4.3 -11.4,-6.6 -1,-0.6 -2,-1.2 -3,-1.9 -3.5,-2.2 -7.1,-4.5 -10.5,-6.8 -1.1,-0.7 -2.2,-1.5 -3.2,-2.2 -0.8,-0.5 -1.6,-1.1 -2.3,-1.6 -1,-0.7 -1.9,-1.3 -2.8,-2 -0.7,-0.5 -1.3,-0.9 -2,-1.4 -1.2,-0.9 -2.3,-1.7 -3.5,-2.6 -1.5,-1.1 -3,-2.3 -4.5,-3.4 -1.2,-0.9 -2.4,-1.9 -3.6,-2.8 -0.5,-0.4 -0.9,-0.7 -1.4,-1.1 -1.2,-1 -2.5,-2 -3.7,-3 -0.1,-0.1 -0.3,-0.2 -0.4,-0.3 -1.3,-1.1 -2.7,-2.2 -4,-3.4 -1.5,-1.3 -2.9,-2.6 -4.4,-3.8 -1.4,-1.3 -2.8,-2.5 -4.2,-3.8 -1.1,-1.1 -2.3,-2.1 -3.4,-3.2 -0.6,-0.6 -1.2,-1.1 -1.7,-1.7 -1,-1 -2,-1.9 -3,-2.9 -2.7,-2.7 -5.4,-5.5 -8,-8.2 -1.3,-1.4 -2.6,-2.8 -3.9,-4.1 -1.3,-1.4 -2.5,-2.8 -3.8,-4.2 -2.5,-2.8 -5,-5.7 -7.4,-8.6 -1.2,-1.5 -2.4,-2.9 -3.6,-4.4 -1.2,-1.4 -2.3,-2.9 -3.4,-4.3 0,-0.1 -0.1,-0.1 -0.1,-0.1 -0.1,-0.1 -0.2,-0.2 -0.3,-0.4 -3.2,-4.1 -6.3,-8.3 -9.3,-12.6 -3,-4.4 -6,-8.9 -8.9,-13.4 -0.9,-1.5 -1.9,-3.1 -2.8,-4.6 -0.9,-1.6 -1.8,-3.1 -2.7,-4.7 -0.9,-1.6 -1.8,-3.1 -2.7,-4.7 -0.8,-1.4 -1.5,-2.8 -2.3,-4.1 -0.4,-0.7 -0.8,-1.4 -1.1,-2.1 -0.6,-1.1 -1.2,-2.2 -1.7,-3.3 -0.8,-1.6 -1.6,-3.2 -2.4,-4.8 -0.7,-1.3 -1.3,-2.7 -2,-4 -1.1,-2.2 -2.1,-4.4 -3.1,-6.6 -1.4,-3 -2.7,-6.1 -4,-9.2 -0.7,-1.7 -1.4,-3.3 -2,-5 l -0.5,-1.4 c -0.7,-1.6 -1.3,-3.2 -1.9,-4.8 -1.4,-3.8 -2.8,-7.6 -4.1,-11.5 -0.4,-1.3 -0.9,-2.6 -1.3,-4 -0.4,-1.3 -0.8,-2.5 -1.2,-3.8 -0.4,-1.2 -0.7,-2.3 -1.1,-3.5 -1.9,-6.2 -3.5,-12.5 -5,-19 -0.4,-1.4 -0.7,-2.8 -1,-4.2 -0.2,-0.6 -0.3,-1.2 -0.4,-1.8 -0.4,-1.6 -0.7,-3.2 -1,-4.8 -0.6,-2.8 -1.1,-5.6 -1.6,-8.5 -0.3,-1.8 -0.6,-3.6 -0.9,-5.5 -0.1,-0.7 -0.2,-1.3 -0.3,-2 -0.3,-1.7 -0.5,-3.4 -0.7,-5.1 -0.1,-0.8 -0.2,-1.6 -0.3,-2.4 -0.3,-2.4 -0.6,-4.9 -0.9,-7.3 -6.9,-66.3 6,-130 33.9,-185.4 49.5,-98.1 146.4,-169.7 263.8,-182.1 79.7,-8.3 155.8,12 217.9,52.7 2.1,1.4 4.2,2.8 6.4,4.3 0.5,0.4 1,0.7 1.5,1.1 1.2,0.8 2.4,1.7 3.6,2.6 2.5,1.8 5.1,3.6 7.5,5.6 1.1,0.8 2.2,1.7 3.3,2.5 0.9,0.7 1.8,1.4 2.7,2.1 2.5,2 5,4 7.4,6 0.1,0.1 0.3,0.2 0.4,0.4 1,0.8 2,1.7 3,2.6 0.9,0.8 1.8,1.6 2.7,2.4 1,0.9 1.9,1.7 2.8,2.5 1.5,1.4 3,2.7 4.4,4.1 1,0.9 1.9,1.8 2.8,2.7 1.6,1.6 3.2,3.1 4.9,4.8 1.6,1.6 3.2,3.2 4.8,4.8 0.5,0.6 1.1,1.1 1.6,1.7 1.2,1.2 2.3,2.4 3.4,3.6 1,1.1 2,2.2 3,3.3 1.3,1.5 2.6,2.9 3.9,4.4 0.7,0.8 1.3,1.5 1.9,2.2 1,1.1 1.9,2.2 2.8,3.4 1,1.1 1.9,2.2 2.8,3.4 2.5,3 4.9,6.1 7.2,9.3 1.2,1.6 2.3,3.1 3.5,4.7 2.3,3.2 4.5,6.4 6.7,9.7 1.1,1.6 2.1,3.1 3.1,4.7 0.2,0.3 0.4,0.6 0.6,0.9 2,3.1 3.9,6.2 5.8,9.4 1,1.7 2,3.4 3,5.1 0.1,0.1 0.1,0.2 0.2,0.3 0.9,1.6 1.8,3.3 2.7,4.9 1,1.8 2,3.6 2.9,5.5 0.6,1.2 1.2,2.3 1.8,3.5 1.2,2.4 2.4,4.8 3.6,7.3 0.8,1.7 1.6,3.3 2.3,5 v 0 c 0.7,1.6 1.5,3.2 2.2,4.9 1.8,4.1 3.5,8.2 5.2,12.4 0.5,1.3 1,2.5 1.5,3.8 1.9,5 3.7,10.1 5.3,15.2 0.5,1.6 1,3.1 1.5,4.7 0.6,1.8 1.1,3.5 1.6,5.3 0.4,1.4 0.8,2.9 1.2,4.3 0.4,1.4 0.8,2.8 1.1,4.2 0.8,2.8 1.5,5.7 2.1,8.6 0.4,1.8 0.9,3.7 1.2,5.5 0.4,1.8 0.8,3.5 1.1,5.3 0.4,2 0.8,3.9 1.1,5.9 0.4,1.9 0.7,3.8 1,5.7 0.3,1.6 0.5,3.1 0.7,4.7 0,0.3 0.1,0.6 0.2,1 0.1,0.4 0.1,0.8 0.2,1.1 0.1,0.4 0.1,0.8 0.2,1.2 0.3,1.6 0.5,3.3 0.7,4.9 0.2,1.8 0.4,3.6 0.6,5.4 0.1,0.3 0.1,0.5 0.1,0.8 1,9.7 1.6,20.1 1.7,30.5 z"
                id="path6"/>

        <linearGradient
                id="SVGID_00000061441489479241965270000011572600550515479168_"
                gradientUnits="userSpaceOnUse"
                x1="636.67969"
                y1="1218.9209"
                x2="1264.9689"
                y2="1218.9209">
		<stop
                offset="0"
                style="stop-color:#0762EF"
                id="stop7"/>
            <stop
                    offset="1"
                    style="stop-color:#52E3FE"
                    id="stop8"/>
	</linearGradient>
        <path
                style="fill:url(#SVGID_00000061441489479241965270000011572600550515479168_)"
                d="m 1265,1155.3 c -0.1,0 -0.1,0 0,0 -4.6,-6.8 -9.4,-13.3 -14.5,-19.7 v -0.1 c -0.6,-1.4 -1.2,-2.8 -1.9,-4.2 -2.3,-5.1 -4.7,-10.1 -7.3,-15 -0.6,-1.1 -1.1,-2.1 -1.7,-3.2 -3.3,-6.1 -6.9,-12.1 -10.6,-17.9 -0.7,-1 -1.3,-2 -2,-3 -0.7,-1.1 -1.4,-2.1 -2.2,-3.2 -0.8,-1.1 -1.6,-2.3 -2.4,-3.4 -4,-5.7 -8.2,-11.2 -12.6,-16.5 -1.9,-2.2 -3.7,-4.4 -5.6,-6.6 -1.9,-2.2 -3.9,-4.3 -5.9,-6.4 -1,-1.1 -2.1,-2.2 -3.1,-3.2 -0.9,-0.9 -1.7,-1.8 -2.6,-2.6 -1.3,-1.3 -2.6,-2.5 -3.9,-3.8 -1.1,-1 -2.1,-2 -3.2,-3 -1.1,-1 -2.2,-2 -3.3,-3.1 -2.2,-2 -4.4,-3.9 -6.7,-5.8 -0.1,0 -0.1,-0.1 -0.2,-0.1 -0.9,-0.8 -1.7,-1.5 -2.6,-2.2 -3.7,-3.1 -7.5,-6.1 -11.4,-8.9 -17.2,-12.7 -36,-23.5 -55.9,-32 -2.6,-1.1 -5.2,-2.2 -7.8,-3.2 -13,-5.1 -26.6,-9.2 -40.5,-12.3 -1.2,-0.3 -2.4,-0.5 -3.5,-0.8 -24.7,-5.1 -50.6,-6.9 -76.9,-4.8 -2.4,0.2 -4.9,0.4 -7.3,0.7 -6.9,0.7 -13.7,1.7 -20.4,2.9 -1.3,0.2 -2.7,0.5 -4,0.8 -2.7,0.5 -5.3,1.1 -7.9,1.7 0,0 0,0 0,0 -2,0.5 -4,0.9 -6,1.4 -2,0.5 -3.9,1 -5.9,1.5 -0.5,0.1 -1,0.3 -1.4,0.4 -1.9,0.5 -3.9,1.1 -5.8,1.7 -1.9,0.6 -3.8,1.2 -5.7,1.8 -4.1,1.3 -8.1,2.7 -12,4.2 -3.9,1.5 -7.8,3.1 -11.7,4.8 -1.9,0.8 -3.9,1.7 -5.8,2.6 -2.3,1.1 -4.6,2.1 -6.8,3.3 -1.5,0.7 -3,1.5 -4.5,2.3 -8.2,4.2 -16.1,8.9 -23.7,13.9 -2.1,1.4 -4.1,2.7 -6.1,4.2 -5.8,4 -11.5,8.2 -16.9,12.7 -2.5,2 -4.9,4 -7.2,6.1 -2.3,2 -4.5,4 -6.7,6.1 -1.5,1.4 -3,2.8 -4.5,4.3 -25.2,24.7 -45.6,54 -59.9,86.5 -1.6,3.5 -3,7.1 -4.4,10.7 -12,30.9 -18.6,64.5 -18.6,99.2 0,2.4 0,4.7 0.1,7.1 0,0.1 0,0.1 0,0.2 0,2.3 0.2,4.7 0.3,7 v 0.3 c 0.3,4.8 0.6,9.6 1.1,14.4 0.3,2.8 0.6,5.6 1,8.4 0.4,2.8 0.8,5.6 1.2,8.3 1.1,6.5 2.4,12.9 3.9,19.2 0.3,1.3 0.6,2.5 0.9,3.8 0.7,2.6 1.3,5.2 2.1,7.7 0.7,2.4 1.4,4.8 2.2,7.2 0.4,1.2 0.8,2.5 1.2,3.7 0.4,1.2 0.8,2.4 1.2,3.6 0.9,2.7 1.9,5.3 2.9,7.9 0.8,2.1 1.7,4.3 2.5,6.4 1,2.3 1.9,4.7 3,7 0.2,0.5 0.4,1 0.6,1.4 0.2,0.5 0.5,1 0.7,1.5 0.7,1.6 1.5,3.3 2.3,4.9 1,2 1.9,3.9 2.9,5.9 1.1,2.2 2.3,4.4 3.5,6.6 0,0 0,0 0,0.1 1,2 2.1,3.9 3.3,5.8 0.3,0.6 0.7,1.2 1,1.7 1,1.7 1.9,3.3 3,4.9 0.1,0.3 0.3,0.5 0.4,0.7 1,1.6 2,3.2 3.1,4.8 1.6,2.5 3.3,5 5.1,7.5 1,1.4 2,2.8 3,4.2 1.4,1.9 2.7,3.7 4.1,5.5 1.4,1.8 2.7,3.5 4.2,5.3 0,0 0.1,0.1 0.1,0.1 0.7,1.6 1.4,3.2 2.1,4.8 7.1,15.7 15.6,30.5 25.3,44.4 1,1.4 1.9,2.8 3,4.2 12.7,17.4 27.4,33.2 43.6,47.1 -0.1,0 -0.1,0 -0.2,-0.1 -1.8,-0.4 -3.6,-0.8 -5.4,-1.3 -0.7,-0.2 -1.4,-0.4 -2.1,-0.5 -1.4,-0.4 -2.8,-0.7 -4.2,-1.1 -2.2,-0.6 -4.3,-1.2 -6.5,-1.8 -2.3,-0.7 -4.6,-1.3 -6.8,-2 -0.5,-0.1 -1,-0.3 -1.4,-0.5 -2.1,-0.7 -4.2,-1.3 -6.3,-2.1 -2.4,-0.8 -4.8,-1.6 -7.2,-2.5 -2.2,-0.8 -4.4,-1.6 -6.6,-2.5 v 0 c -0.4,-0.1 -0.7,-0.3 -1,-0.4 -1.8,-0.7 -3.5,-1.4 -5.3,-2.1 -0.7,-0.3 -1.4,-0.6 -2.1,-0.9 -2,-0.8 -4,-1.7 -6,-2.6 -2,-0.9 -4.1,-1.8 -6.1,-2.8 -0.5,-0.2 -1,-0.5 -1.5,-0.7 -2,-1 -4.1,-2 -6.1,-3 -2.2,-1.1 -4.5,-2.3 -6.7,-3.4 -2.2,-1.2 -4.4,-2.4 -6.6,-3.6 -3.8,-2.1 -7.6,-4.3 -11.4,-6.6 -1,-0.6 -2,-1.2 -3,-1.9 -3.5,-2.2 -7.1,-4.5 -10.5,-6.8 -1.1,-0.7 -2.2,-1.5 -3.2,-2.2 -0.8,-0.5 -1.6,-1.1 -2.3,-1.6 -1,-0.7 -1.9,-1.3 -2.8,-2 -0.7,-0.5 -1.3,-0.9 -2,-1.4 -1.2,-0.9 -2.3,-1.7 -3.5,-2.6 -1.5,-1.1 -3,-2.3 -4.5,-3.4 -1.2,-0.9 -2.4,-1.9 -3.6,-2.8 -0.5,-0.4 -0.9,-0.7 -1.4,-1.1 -1.2,-1 -2.5,-2 -3.7,-3 -0.1,-0.1 -0.3,-0.2 -0.4,-0.3 -1.3,-1.1 -2.7,-2.2 -4,-3.4 -1.5,-1.3 -2.9,-2.6 -4.4,-3.8 -1.4,-1.3 -2.8,-2.5 -4.2,-3.8 -1.1,-1.1 -2.3,-2.1 -3.4,-3.2 -0.6,-0.6 -1.2,-1.1 -1.7,-1.7 -1,-1 -2,-1.9 -3,-2.9 -2.7,-2.7 -5.4,-5.5 -8,-8.2 -1.3,-1.4 -2.6,-2.8 -3.9,-4.1 -1.3,-1.4 -2.5,-2.8 -3.8,-4.2 -2.5,-2.8 -5,-5.7 -7.4,-8.6 -1.2,-1.5 -2.4,-2.9 -3.6,-4.4 -1.2,-1.4 -2.3,-2.9 -3.4,-4.3 0,-0.1 -0.1,-0.1 -0.1,-0.1 -1.6,-3.4 -3.1,-6.8 -4.6,-10.3 -12.3,-29.4 -20.6,-61.1 -24.1,-94.4 -7,-66.3 6,-130 33.9,-185.4 49.6,-98.1 146.4,-169.7 263.9,-182.1 79.7,-8.3 155.8,12 217.9,52.7 31.4,20.6 59.3,46.3 82.2,76.2 v 0 c 0.7,1.6 1.5,3.2 2.2,4.9 1.8,4.1 3.5,8.2 5.2,12.4 0.5,1.3 1,2.5 1.5,3.8 1.9,5 3.7,10.1 5.3,15.2 0.5,1.6 1,3.1 1.5,4.7 0.6,1.8 1.1,3.5 1.6,5.3 0.4,1.4 0.8,2.9 1.2,4.3 0.4,1.4 0.8,2.8 1.1,4.2 0.8,2.8 1.5,5.7 2.1,8.6 0.4,1.8 0.9,3.7 1.2,5.5 0.4,1.8 0.8,3.5 1.1,5.3 0.4,2 0.8,3.9 1.1,5.9 0.4,1.9 0.7,3.8 1,5.7 0.3,1.6 0.5,3.1 0.7,4.7 0,0.3 0.1,0.6 0.2,1 0.1,0.4 0.1,0.8 0.2,1.1 0.1,0.4 0.1,0.8 0.2,1.2 0.3,1.6 0.5,3.3 0.7,4.9 0.2,0.9 0.4,2.7 0.6,4.5 z"
                id="path8"/>

        <linearGradient
                id="SVGID_00000173848478488374219970000003140123504515225474_"
                gradientUnits="userSpaceOnUse"
                x1="586.13562"
                y1="1190.926"
                x2="1413.8644"
                y2="1190.926">
		<stop
                offset="0"
                style="stop-color:#28E3FF"
                id="stop9"/>
            <stop
                    offset="1"
                    style="stop-color:#C2EE21"
                    id="stop10"/>
	</linearGradient>
        <path
                style="fill:url(#SVGID_00000173848478488374219970000003140123504515225474_)"
                d="m 1347.9,1391.8 c -123.8,192.1 -379.9,247.5 -572,123.7 -56.1,-36.1 -100.5,-83.5 -132.2,-137.3 -15.5,-26.1 -27.9,-53.8 -37.2,-82.4 -34.9,-107.3 -25.8,-227.9 33.5,-332.3 1.2,-2.1 2.4,-4.1 3.6,-6.1 2.7,-4.7 5.6,-9.3 8.5,-13.8 7.1,-11 14.6,-21.5 22.5,-31.6 -38.7,76.2 -46,161.7 -25.4,240 20.8,79.2 70.2,151.2 144.5,199.1 157.8,101.7 368.1,56.2 469.7,-101.6 3.8,-5.9 7.4,-11.8 10.8,-17.8 25.6,-45.5 39.5,-94.6 42.7,-143.9 6.8,-103.7 -34.3,-207.8 -116,-278.7 -3.4,-2.9 -6.9,-5.8 -10.4,-8.6 6.3,3.2 12.4,6.6 18.6,10.2 5,2.9 10,6 15,9.2 65.5,42.3 115.2,99.9 147.2,165.1 61.9,125.9 58.1,280.2 -23.4,406.8 z"
                id="path10"/>

        <linearGradient
                id="SVGID_00000052799459259700397170000009429852433051479208_"
                gradientUnits="userSpaceOnUse"
                x1="612.42047"
                y1="1142.0187"
                x2="1350.7648"
                y2="1142.0187">
		<stop
                offset="0"
                style="stop-color:#28E3FF"
                id="stop11"/>
            <stop
                    offset="1"
                    style="stop-color:#C2EE21"
                    id="stop12"/>
	</linearGradient>
        <path
                style="fill:url(#SVGID_00000052799459259700397170000009429852433051479208_)"
                d="m 1291.9,1305.8 c -110.4,171.4 -338.9,220.7 -510.2,110.3 -50,-32.2 -89.6,-74.5 -117.9,-122.5 -13.8,-23.3 -24.9,-48 -33.2,-73.5 -27.5,-84.4 -24.4,-178 13,-262.9 2.7,-4.7 5.6,-9.3 8.5,-13.8 7.1,-11 14.6,-21.5 22.5,-31.6 -38.7,76.2 -46,161.7 -25.4,240 20.8,79.2 70.2,151.2 144.5,199.1 157.8,101.7 368.1,56.2 469.7,-101.6 3.8,-5.9 7.4,-11.8 10.8,-17.8 25.6,-45.5 39.5,-94.6 42.7,-143.9 6.8,-103.7 -34.3,-207.8 -116,-278.7 48.9,36.1 86.5,82.3 111.8,133.9 55.3,112.4 51.9,250.1 -20.8,363 z"
                id="path12"/>

        <linearGradient
                id="SVGID_00000028290569896075099810000003348870586474259598_"
                gradientUnits="userSpaceOnUse"
                x1="597.98639"
                y1="840.25732"
                x2="1275.9039"
                y2="840.25732">
		<stop
                offset="0"
                style="stop-color:#28E3FF"
                id="stop13"/>
            <stop
                    offset="1"
                    style="stop-color:#C2EE21"
                    id="stop14"/>
	</linearGradient>
        <path
                style="fill:url(#SVGID_00000028290569896075099810000003348870586474259598_)"
                d="M 1275.9,1002.8 C 1210.8,891.1 1096.7,797.5 956.2,797.5 c -48.6,0 -92.8,7.6 -132.4,19.4 -141.6,42.5 -222.8,140 -225.8,141.9 0.5,-0.9 1.1,-1.8 1.6,-2.7 16.5,-27.6 33.7,-52.6 51.3,-75.3 0.1,-0.1 0.1,-0.1 0.1,-0.2 172.8,-222.4 391.8,-219.4 530.3,-186.7 l 60.9,89.5 6.6,9.7 c -72.1,-43.5 -156.6,-68.4 -247,-68.4 h -0.5 c -6.1,0 -7.1,8.6 -1.2,10.2 121.7,32.4 256.3,145.7 275.8,267.9 z"
                id="path14"/>
</g>
</svg>
