<?xml version="1.0" encoding="UTF-8" standalone="no"?>
<svg
   version="1.1"
   viewBox="0 0 1467 1152"
   width="366.75"
   height="288"
   id="svg48"
   sodipodi:docname="lisc.svg"
   inkscape:version="1.4.3 (0d15f75, 2025-12-25)"
   xmlns:inkscape="http://www.inkscape.org/namespaces/inkscape"
   xmlns:sodipodi="http://sodipodi.sourceforge.net/DTD/sodipodi-0.dtd"
   xmlns="http://www.w3.org/2000/svg"
   xmlns:svg="http://www.w3.org/2000/svg">
  <defs
     id="defs48" />
  <sodipodi:namedview
     id="namedview48"
     pagecolor="#ffffff"
     bordercolor="#000000"
     borderopacity="0.25"
     inkscape:showpageshadow="2"
     inkscape:pageopacity="0.0"
     inkscape:pagecheckerboard="0"
     inkscape:deskcolor="#d1d1d1"
     inkscape:zoom="0.65130173"
     inkscape:cx="155.84175"
     inkscape:cy="-13.050787"
     inkscape:window-width="1728"
     inkscape:window-height="1056"
     inkscape:window-x="0"
     inkscape:window-y="33"
     inkscape:window-maximized="0"
     inkscape:current-layer="svg48" />
  <g
     id="g48"
     transform="translate(-75,-192)">
    <path
       transform="translate(584,192)"
       d="m 0,0 4,1 33,39 9,11 11,13 9,11 18,21 -1,5 -6,9 -24,38 -16,26 -36,57 -13,21 -15,23 -7,12 -14,22 -12,19 -13,21 -15,24 -24,38 -10,16 -14,22 -11,18 -16,25 -11,18 -14,22 -13,21 -14,22 -13,21 -15,23 -7,12 -14,22 -13,21 -14,22 -16,26 -15,23 -2,5 h 192 l 8,-13 15,-25 13,-22 60,-100 17,-28 27,-45 13,-21 1,-1 h 61 l -5,9 -28,46 -9,15 -16,26 -9,15 -34,56 -12,20 -13,21 -13,22 -14,23 -1,2 h 85 l 10,-15 11,-17 9,-1 h 172 l 2,-5 17,-28 13,-22 10,-16 v -1 l -106,-1 -40,-1 -9,-5 -4,-5 -3,-7 1,-10 5,-12 13,-22 16,-27 8,-14 11,-17 11,-12 10,-7 13,-6 15,-4 6,-1 40,-1 h 164 l -2,5 -15,27 -13,22 -1,1 -8,1 H 195 l -3,3 -14,27 -4,9 140,1 11,3 8,7 3,6 -1,10 -8,16 -13,22 -11,18 -17,28 -24,40 -5,8 -1,3 79,-1 13,-21 17,-29 15,-25 13,-22 19,-32 9,-15 19,-32 21,-35 10,-15 9,-10 8,-7 11,-6 11,-4 11,-2 186,-1 -2,5 -11,19 -16,27 -5,6 H 515 l -5,5 -9,14 -13,22 -60,100 -14,23 -1,3 h 157 l 2,2 -14,25 -2,4 v 3 h 293 l 5,5 11,13 9,11 14,17 11,13 9,11 11,13 9,11 13,16 12,14 5,7 v 1 H -460 l -15,-2 -10,-4 -9,-6 -7,-7 -7,-14 -1,-5 v -15 l 3,-15 5,-13 8,-16 30,-48 12,-19 10,-16 12,-19 11,-18 14,-22 30,-48 24,-38 30,-48 12,-19 25,-40 12,-19 15,-24 12,-19 30,-48 12,-19 15,-24 12,-19 10,-16 12,-19 30,-48 12,-19 25,-40 12,-19 15,-24 12,-19 13,-21 10,-16 21,-33 z"
       fill="#1d73c1"
       id="path2" />
    <path
       transform="translate(481,1294)"
       d="m 0,0 h 187 l -2,6 -10,15 -3,1 H -10 L -12,20 -2,3 Z"
       fill="#1d73c1"
       id="path3" />
    <path
       transform="translate(581,1129)"
       d="m 0,0 h 186 l -2,5 -7,12 -4,5 H -13 l 6,-12 z"
       fill="#1d73c1"
       id="path4" />
    <path
       transform="translate(1147,1130)"
       d="m 0,0 h 186 l -2,5 -9,15 -3,2 H 11 l -23,-1 2,-6 8,-13 z"
       fill="#1d73c1"
       id="path5" />
    <path
       transform="translate(1048,1294)"
       d="m 0,0 h 138 l 48,1 -2,5 -10,15 -2,1 H -12 l 1,-5 9,-15 z"
       fill="#1d73c1"
       id="path6" />
    <path
       transform="translate(1221,1103)"
       d="m 0,0 h 106 l 7,6 2,4 v 11 l -1,1 -21,1 H -34 l -36,-1 2,-4 7,-7 14,-8 5,-2 z"
       fill="#1d73c1"
       id="path7" />
    <path
       transform="translate(147,1321)"
       d="m 0,0 h 53 l 137,1 -3,6 -7,11 -3,3 H -11 L -3,5 Z"
       fill="#1d73c1"
       id="path8" />
    <path
       transform="translate(616,1103)"
       d="m 0,0 h 146 l 5,4 3,6 v 11 l -9,1 H -26 l -5,-1 2,-4 h 2 l 1,-3 11,-8 10,-5 z"
       fill="#1d73c1"
       id="path9" />
    <path
       transform="translate(163,1295)"
       d="m 0,0 188,1 -1,4 -8,14 -1,1 -56,1 H 27 l -38,-1 2,-6 7,-13 z"
       fill="#1d73c1"
       id="path10" />
    <path
       transform="translate(467,1321)"
       d="m 0,0 h 183 l -6,7 -18,10 -11,4 -25,1 H 11 L 3,18 -1,13 -2,11 V 3 Z"
       fill="#1d73c1"
       id="path11" />
    <path
       transform="translate(213,1213)"
       d="m 0,0 h 103 l 79,1 -1,3 h -2 v 2 l -11,8 -12,6 -5,1 H -13 l 4,-8 z"
       fill="#1d73c1"
       id="path12" />
    <path
       transform="translate(282,1103)"
       d="m 0,0 h 142 l 15,1 6,4 5,6 1,9 -1,1 H -16 l 7,-11 7,-9 z"
       fill="#1d73c1"
       id="path13" />
    <path
       transform="translate(1211,1321)"
       d="m 0,0 h 5 l -3,5 -10,7 -15,7 -12,3 -65,1 h -60 l -9,-1 -8,-5 -3,-7 1,-9 z"
       fill="#1d73c1"
       id="path14" />
    <path
       transform="translate(262,1132)"
       d="m 0,0 h 184 l -1,5 -8,13 -2,2 H -13 L -7,9 -2,1 Z"
       fill="#1d73c1"
       id="path15" />
    <path
       transform="translate(358,1187)"
       d="m 0,0 h 51 l 7,1 -5,9 -7,10 -2,1 H -93 l -44,-1 4,-5 13,-9 10,-5 z"
       fill="#1d73c1"
       id="path16" />
    <path
       transform="translate(908,1103)"
       d="M 0,0 H 82 L 80,4 70,20 69,21 H -13 L -5,7 -2,1 Z"
       fill="#1d73c1"
       id="path17" />
    <path
       transform="translate(888,1133)"
       d="m 0,0 h 84 l -6,11 -5,8 -2,1 -41,1 h -42 l 2,-5 z"
       fill="#1d73c1"
       id="path18" />
    <path
       transform="translate(890,1185)"
       d="m 0,0 h 47 l 4,2 -10,17 -3,3 h -48 l -2,-2 z"
       fill="#1d73c1"
       id="path19" />
    <path
       transform="translate(809,1322)"
       d="m 0,0 h 47 l 4,1 -2,5 -7,11 -5,5 H 6 l -18,-1 6,-11 z"
       fill="#1d73c1"
       id="path20" />
    <path
       transform="translate(700,1157)"
       d="m 0,0 h 19 l 31,1 -6,11 -6,9 -1,1 h -50 l 2,-6 9,-14 z"
       fill="#1d73c1"
       id="path21" />
    <path
       transform="translate(1096,1213)"
       d="m 0,0 51,1 -6,11 -7,10 h -50 l 2,-6 9,-15 z"
       fill="#1d73c1"
       id="path22" />
    <path
       transform="translate(1130,1158)"
       d="M 0,0 50,1 48,6 38,21 37,22 H -12 L -13,20 -2,1 Z"
       fill="#1d73c1"
       id="path23" />
    <path
       transform="translate(1265,1158)"
       d="M 0,0 H 50 L 49,5 39,21 24,22 -12,21 -10,16 -2,2 Z"
       fill="#1d73c1"
       id="path24" />
    <path
       transform="translate(1249,1185)"
       d="m 0,0 h 51 l -6,12 -6,9 h -51 l 2,-5 8,-14 z"
       fill="#1d73c1"
       id="path25" />
    <path
       transform="translate(633,1267)"
       d="m 0,0 h 51 l -2,5 -8,14 -2,2 h -51 l 2,-5 8,-13 z"
       fill="#1d73c1"
       id="path26" />
    <path
       transform="translate(497,1267)"
       d="m 0,0 h 51 l -2,6 -9,14 -1,1 h -50 l 1,-5 z"
       fill="#1d73c1"
       id="path27" />
    <path
       transform="translate(1232,1213)"
       d="m 0,0 h 51 l -2,5 -8,14 -2,2 h -50 l 1,-5 z"
       fill="#1d73c1"
       id="path28" />
    <path
       transform="translate(874,1213)"
       d="M 0,0 H 51 L 49,6 39,21 h -50 l 1,-5 9,-15 z"
       fill="#1d73c1"
       id="path29" />
    <path
       transform="translate(682,1185)"
       d="m 0,0 h 52 l -4,8 -7,11 -2,2 h -49 l -1,-2 z"
       fill="#1d73c1"
       id="path30" />
    <path
       transform="translate(547,1184)"
       d="m 0,0 h 51 l -2,6 -9,14 -1,1 h -50 l 1,-5 z"
       fill="#1d73c1"
       id="path31" />
    <path
       transform="translate(826,1295)"
       d="m 0,0 h 50 l -1,5 -9,14 -2,2 h -50 l 2,-5 8,-14 z"
       fill="#1d73c1"
       id="path32" />
    <path
       transform="translate(530,1213)"
       d="m 0,0 h 48 l 2,1 -2,6 -7,11 -2,3 h -51 l 2,-5 8,-14 z"
       fill="#1d73c1"
       id="path33" />
    <path
       transform="translate(841,1269)"
       d="m 0,0 h 51 l -2,6 -8,13 -2,2 H -8 l -3,-1 2,-5 z"
       fill="#1d73c1"
       id="path34" />
    <path
       transform="translate(907,1158)"
       d="m 0,0 h 50 l -2,5 -8,14 -2,2 h -50 l 1,-5 9,-14 z"
       fill="#1d73c1"
       id="path35" />
    <path
       transform="translate(563,1158)"
       d="m 0,0 h 45 l 6,1 -4,7 -8,13 h -51 l 2,-5 8,-14 z"
       fill="#1d73c1"
       id="path36" />
    <path
       transform="translate(650,1239)"
       d="m 0,0 h 46 l 5,1 -6,11 -6,9 H -10 V 17 L -4,6 Z"
       fill="#1d73c1"
       id="path37" />
    <path
       transform="translate(1114,1184)"
       d="m 0,0 50,1 -6,12 -6,8 -1,1 H 2 l -15,-1 6,-11 6,-9 z"
       fill="#1d73c1"
       id="path38" />
    <path
       transform="translate(195,1241)"
       d="m 0,0 h 31 l 20,1 -2,5 -9,14 -1,1 h -50 l 1,-4 7,-13 z"
       fill="#1d73c1"
       id="path39" />
    <path
       transform="translate(1080,1240)"
       d="m 0,0 h 51 l -2,5 -9,14 -2,2 H 14 l -25,-1 1,-4 9,-15 z"
       fill="#1d73c1"
       id="path40" />
    <path
       transform="translate(859,1239)"
       d="m 0,0 50,1 -6,12 -5,8 -6,1 -45,-1 2,-6 8,-13 z"
       fill="#1d73c1"
       id="path41" />
    <path
       transform="translate(514,1239)"
       d="m 0,0 51,1 -6,11 -6,9 h -50 v -3 z"
       fill="#1d73c1"
       id="path42" />
    <path
       transform="translate(1064,1267)"
       d="m 0,0 50,1 -2,5 -9,15 h -51 l 2,-6 9,-14 z"
       fill="#1d73c1"
       id="path43" />
    <path
       transform="translate(666,1212)"
       d="m 0,0 51,1 -2,6 -6,9 -4,5 H -9 l -2,-1 2,-5 z"
       fill="#1d73c1"
       id="path44" />
    <path
       transform="translate(1218,1239)"
       d="m 0,0 49,1 -2,5 -8,13 -2,2 h -50 l 1,-4 9,-15 z"
       fill="#1d73c1"
       id="path45" />
    <path
       transform="translate(1199,1268)"
       d="m 0,0 h 51 l -2,5 -8,13 -2,2 h -50 l 1,-4 6,-10 z"
       fill="#1d73c1"
       id="path46" />
    <path
       transform="translate(384,1159)"
       d="m 0,0 h 20 l 28,1 -6,11 -5,8 -2,1 H 0 l -11,-1 1,-4 8,-15 z"
       fill="#1d73c1"
       id="path47" />
    <path
       transform="translate(179,1269)"
       d="m 0,0 h 50 l -1,5 -8,11 -1,2 -3,1 H 21 l -32,-1 3,-7 7,-10 z"
       fill="#1d73c1"
       id="path48" />
  </g>
</svg>
